<svg width="103" height="58" viewBox="0 0 103 58" fill="none" xmlns="http://www.w3.org/2000/svg">
<path d="M5.88 9.32V13.76H13.656V16.88H5.88V23H1.992V6.2H14.688V9.32H5.88ZM29.736 10.088V23H26.184V21.464C25.688 22.024 25.096 22.456 24.408 22.76C23.72 23.048 22.976 23.192 22.176 23.192C20.48 23.192 19.136 22.704 18.144 21.728C17.152 20.752 16.656 19.304 16.656 17.384V10.088H20.4V16.832C20.4 18.912 21.272 19.952 23.016 19.952C23.912 19.952 24.632 19.664 25.176 19.088C25.72 18.496 25.992 17.624 25.992 16.472V10.088H29.736ZM39.4446 23.192C38.0686 23.192 36.8286 22.912 35.7246 22.352C34.6366 21.776 33.7806 20.984 33.1566 19.976C32.5486 18.968 32.2446 17.824 32.2446 16.544C32.2446 15.264 32.5486 14.12 33.1566 13.112C33.7806 12.104 34.6366 11.32 35.7246 10.76C36.8286 10.184 38.0686 9.896 39.4446 9.896C40.8046 9.896 41.9886 10.184 42.9966 10.76C44.0206 11.32 44.7646 12.128 45.2286 13.184L42.3246 14.744C41.6526 13.56 40.6846 12.968 39.4206 12.968C38.4446 12.968 37.6366 13.288 36.9966 13.928C36.3566 14.568 36.0366 15.44 36.0366 16.544C36.0366 17.648 36.3566 18.52 36.9966 19.16C37.6366 19.8 38.4446 20.12 39.4206 20.12C40.7006 20.12 41.6686 19.528 42.3246 18.344L45.2286 19.928C44.7646 20.952 44.0206 21.752 42.9966 22.328C41.9886 22.904 40.8046 23.192 39.4446 23.192ZM52.8345 17.936L51.0345 19.712V23H47.2905V5.192H51.0345V15.272L56.5065 10.088H60.9705L55.5945 15.56L61.4505 23H56.9145L52.8345 17.936ZM63.0405 10.088H66.7845V23H63.0405V10.088ZM64.9125 8.288C64.2245 8.288 63.6645 8.088 63.2325 7.688C62.8005 7.288 62.5845 6.792 62.5845 6.2C62.5845 5.608 62.8005 5.112 63.2325 4.712C63.6645 4.312 64.2245 4.112 64.9125 4.112C65.6005 4.112 66.1605 4.304 66.5925 4.688C67.0245 5.072 67.2405 5.552 67.2405 6.128C67.2405 6.752 67.0245 7.272 66.5925 7.688C66.1605 8.088 65.6005 8.288 64.9125 8.288ZM78.1073 9.896C79.7073 9.896 80.9953 10.376 81.9713 11.336C82.9633 12.296 83.4593 13.72 83.4593 15.608V23H79.7153V16.184C79.7153 15.16 79.4913 14.4 79.0433 13.904C78.5953 13.392 77.9473 13.136 77.0993 13.136C76.1553 13.136 75.4033 13.432 74.8433 14.024C74.2833 14.6 74.0033 15.464 74.0033 16.616V23H70.2593V10.088H73.8353V11.6C74.3313 11.056 74.9473 10.64 75.6833 10.352C76.4193 10.048 77.2273 9.896 78.1073 9.896ZM100.314 10.088V20.84C100.314 23.208 99.6976 24.968 98.4656 26.12C97.2336 27.272 95.4336 27.848 93.0656 27.848C91.8176 27.848 90.6336 27.696 89.5136 27.392C88.3936 27.088 87.4656 26.648 86.7296 26.072L88.2176 23.384C88.7616 23.832 89.4496 24.184 90.2816 24.44C91.1136 24.712 91.9456 24.848 92.7776 24.848C94.0736 24.848 95.0256 24.552 95.6336 23.96C96.2576 23.384 96.5696 22.504 96.5696 21.32V20.768C95.5936 21.84 94.2336 22.376 92.4896 22.376C91.3056 22.376 90.2176 22.12 89.2256 21.608C88.2496 21.08 87.4736 20.344 86.8976 19.4C86.3216 18.456 86.0336 17.368 86.0336 16.136C86.0336 14.904 86.3216 13.816 86.8976 12.872C87.4736 11.928 88.2496 11.2 89.2256 10.688C90.2176 10.16 91.3056 9.896 92.4896 9.896C94.3616 9.896 95.7856 10.512 96.7616 11.744V10.088H100.314ZM93.2336 19.304C94.2256 19.304 95.0336 19.016 95.6576 18.44C96.2976 17.848 96.6176 17.08 96.6176 16.136C96.6176 15.192 96.2976 14.432 95.6576 13.856C95.0336 13.264 94.2256 12.968 93.2336 12.968C92.2416 12.968 91.4256 13.264 90.7856 13.856C90.1456 14.432 89.8256 15.192 89.8256 16.136C89.8256 17.08 90.1456 17.848 90.7856 18.44C91.4256 19.016 92.2416 19.304 93.2336 19.304ZM17.28 52L17.256 41.92L12.312 50.224H10.56L5.64 42.136V52H1.992V35.2H5.208L11.496 45.64L17.688 35.2H20.88L20.928 52H17.28ZM30.7939 52.192C29.4339 52.192 28.2099 51.912 27.1219 51.352C26.0499 50.776 25.2099 49.984 24.6019 48.976C23.9939 47.968 23.6899 46.824 23.6899 45.544C23.6899 44.264 23.9939 43.12 24.6019 42.112C25.2099 41.104 26.0499 40.32 27.1219 39.76C28.2099 39.184 29.4339 38.896 30.7939 38.896C32.1539 38.896 33.3699 39.184 34.4419 39.76C35.5139 40.32 36.3539 41.104 36.9619 42.112C37.5699 43.12 37.8739 44.264 37.8739 45.544C37.8739 46.824 37.5699 47.968 36.9619 48.976C36.3539 49.984 35.5139 50.776 34.4419 51.352C33.3699 51.912 32.1539 52.192 30.7939 52.192ZM30.7939 49.12C31.7539 49.12 32.5379 48.8 33.1459 48.16C33.7699 47.504 34.0819 46.632 34.0819 45.544C34.0819 44.456 33.7699 43.592 33.1459 42.952C32.5379 42.296 31.7539 41.968 30.7939 41.968C29.8339 41.968 29.0419 42.296 28.4179 42.952C27.7939 43.592 27.4819 44.456 27.4819 45.544C27.4819 46.632 27.7939 47.504 28.4179 48.16C29.0419 48.8 29.8339 49.12 30.7939 49.12ZM48.2244 38.896C49.8244 38.896 51.1124 39.376 52.0884 40.336C53.0804 41.296 53.5764 42.72 53.5764 44.608V52H49.8324V45.184C49.8324 44.16 49.6084 43.4 49.1604 42.904C48.7124 42.392 48.0644 42.136 47.2164 42.136C46.2724 42.136 45.5204 42.432 44.9604 43.024C44.4004 43.6 44.1204 44.464 44.1204 45.616V52H40.3764V39.088H43.9524V40.6C44.4484 40.056 45.0644 39.64 45.8004 39.352C46.5364 39.048 47.3444 38.896 48.2244 38.896ZM69.7588 45.592C69.7588 45.64 69.7348 45.976 69.6868 46.6H59.9188C60.0948 47.4 60.5108 48.032 61.1668 48.496C61.8228 48.96 62.6388 49.192 63.6148 49.192C64.2868 49.192 64.8788 49.096 65.3908 48.904C65.9188 48.696 66.4068 48.376 66.8548 47.944L68.8468 50.104C67.6308 51.496 65.8548 52.192 63.5188 52.192C62.0628 52.192 60.7748 51.912 59.6548 51.352C58.5348 50.776 57.6708 49.984 57.0628 48.976C56.4548 47.968 56.1508 46.824 56.1508 45.544C56.1508 44.28 56.4468 43.144 57.0388 42.136C57.6468 41.112 58.4708 40.32 59.5108 39.76C60.5668 39.184 61.7428 38.896 63.0388 38.896C64.3028 38.896 65.4468 39.168 66.4708 39.712C67.4948 40.256 68.2948 41.04 68.8708 42.064C69.4628 43.072 69.7588 44.248 69.7588 45.592ZM63.0628 41.728C62.2148 41.728 61.5028 41.968 60.9268 42.448C60.3508 42.928 59.9988 43.584 59.8708 44.416H66.2308C66.1028 43.6 65.7508 42.952 65.1748 42.472C64.5988 41.976 63.8948 41.728 63.0628 41.728ZM84.8331 39.088L79.0011 52.792C78.4091 54.28 77.6731 55.328 76.7931 55.936C75.9291 56.544 74.8811 56.848 73.6491 56.848C72.9771 56.848 72.3131 56.744 71.6571 56.536C71.0011 56.328 70.4651 56.04 70.0491 55.672L71.4171 53.008C71.7051 53.264 72.0331 53.464 72.4011 53.608C72.7851 53.752 73.1611 53.824 73.5291 53.824C74.0411 53.824 74.4571 53.696 74.7771 53.44C75.0971 53.2 75.3851 52.792 75.6411 52.216L75.6891 52.096L70.0971 39.088H73.9611L77.5851 47.848L81.2331 39.088H84.8331Z" fill="#2D3040"/>
<path d="M5.88 9.32V13.76H13.656V16.88H5.88V23H1.992V6.2H14.688V9.32H5.88ZM17.28 52L17.256 41.92L12.312 50.224H10.56L5.64 42.136V52H1.992V35.2H5.208L11.496 45.64L17.688 35.2H20.88L20.928 52H17.28Z" fill="#FFCF07"/>
</svg>
